#!OML:ASF H:\Terrain\Patient Classification 1\Terrain2\Thursday\justin.ASF
:FULLY-SPECIFIED
:DEGREES
3628
root -1.47094 17.6928 21.2354 1604.57 -259.871 -914.562
lowerback 4.94896 0.353999 2.25643
upperback 1.97895 0.681613 3.188
thorax -0.75352 0.369126 1.97198
lowerneck -13.7475 -1.37481 -7.29199
upperneck 37.4543 1.4145 0.631918
head 15.4671 0.122493 1.93344
rclavicle -7.60351e-015 -1.59028e-014
rhumerus -33.7046 -8.12153 -79.7208
rradius 32.4853
rwrist -13.6421
rhand -24.2795 11.9462
rfingers 7.12502
rthumb 2.20738 -18.0222
lclavicle -7.60351e-015 -1.59028e-014
lhumerus -34.6172 6.57727 82.2781
lradius 35.6344
lwrist 9.69816
lhand -19.8288 25.9299
lfingers 7.12502
lthumb 6.50507 55.81
rfemur -8.80311 4.92314 22.0246
rtibia 34.6825
rfoot -19.7511 3.96862
rtoes 10.7408
lfemur -12.0723 -4.0771 -17.5449
ltibia 29.0873
lfoot -7.86743 -29.7137
ltoes 25.0894
3629
root -1.46553 17.687 21.2674 1606.55 -260.329 -912.618
lowerback 4.85951 0.458772 1.94555
upperback 2.01177 0.793307 2.95185
thorax -0.672892 0.422216 1.89768
lowerneck -13.6508 -1.32075 -7.06582
upperneck 37.4058 1.4936 0.466037
head 15.4181 0.171622 1.8353
rclavicle -1.04362e-015 1.03368e-014
rhumerus -33.4204 -8.21101 -79.7335
rradius 32.7499
rwrist -13.6896
rhand -23.9794 11.9612
rfingers 7.12502
rthumb 2.49726 -18.004
lclavicle -1.04362e-015 1.03368e-014
lhumerus -34.5484 6.72317 81.8758
lradius 35.3223
lwrist 9.56002
lhand -19.533 25.7794
lfingers 7.12502
lthumb 6.79064 55.6505
rfemur -8.57216 4.42169 21.5862
rtibia 34.232
rfoot -19.6543 4.55916
rtoes 11.7622
lfemur -12.2583 -4.20513 -17.9046
ltibia 29.2917
lfoot -7.7517 -30.128
ltoes 25.5048
3630
root -1.47149 17.6884 21.3072 1607.14 -260.802 -912.148
lowerback 4.84344 0.510546 1.80918
upperback 2.02165 0.851842 2.84831
thorax -0.65535 0.450339 1.86457
lowerneck -13.6448 -1.26885 -7.11128
upperneck 37.3879 1.59638 0.471465
head 15.4031 0.21349 1.86319
rclavicle 1.58531e-014 -1.66979e-014
rhumerus -33.1056 -7.91832 -79.7727
rradius 33.0514
rwrist -13.7874
rhand -23.8716 11.9363
rfingers 7.12502
rthumb 2.60136 -18.0276
lclavicle 1.58531e-014 -1.66979e-014
lhumerus -34.1791 7.48464 81.5697
lradius 34.7013
lwrist 8.87857
lhand -19.3459 25.5281
lfingers 7.12502
lthumb 6.97122 55.3933
rfemur -8.41897 3.93097 21.4815
rtibia 33.697
rfoot -19.5713 4.48718
rtoes 13.4471
lfemur -12.6657 -4.37778 -17.9384
ltibia 29.5838
lfoot -7.76559 -30.5722
ltoes 25.1624
3631
root -1.48523 17.6809 21.3418 1603.05 -261.105 -916.513
lowerback 4.8318 0.531021 2.37137
upperback 1.96629 0.915201 3.08033
thorax -0.701853 0.486195 1.78474
lowerneck -13.5854 -1.29351 -7.43176
upperneck 37.3819 1.64721 0.531806
head 15.3853 0.203721 1.95432
rclavicle -2.33572e-014 3.65764e-014
rhumerus -32.8478 -7.3055 -79.6601
rradius 33.3792
rwrist -14.0803
rhand -23.9548 11.784
rfingers 7.12502
rthumb 2.52105 -18.1808
lclavicle -2.33572e-014 3.65764e-014
lhumerus -33.9484 8.17678 81.6376
lradius 34.2607
lwrist 8.37488
lhand -19.663 25.8229
lfingers 7.12502
lthumb 6.66518 55.698
rfemur -8.46023 3.43545 22.3497
rtibia 33.1694
rfoot -19.5513 3.8475
rtoes 13.8104
lfemur -13.2209 -4.52512 -17.1162
ltibia 29.8358
lfoot -7.48815 -30.7425
ltoes 24.7622
3632
root -1.49336 17.6732 21.3735 1597.26 -261.235 -922.489
lowerback 4.86182 0.4774 3.12369
upperback 1.96451 0.895101 3.4047
thorax -0.713591 0.483078 1.69859
lowerneck -13.642 -1.25378 -7.6162
upperneck 37.4617 1.83276 0.430888
head 15.434 0.244445 1.97815
rclavicle -1.20265e-014 -2.38542e-015
rhumerus -32.4795 -6.89016 -79.478
rradius 33.5632
rwrist -14.2867
rhand -24.0169 11.8716
rfingers 7.12502
rthumb 2.46099 -18.0939
lclavicle -1.20265e-014 -2.38542e-015
lhumerus -33.9994 8.77179 81.6492
lradius 34.0279
lwrist 8.01108
lhand -19.7471 25.8932
lfingers 7.12502
lthumb 6.58396 55.7709
rfemur -8.32427 3.08321 23.498
rtibia 32.6975
rfoot -19.549 3.44222
rtoes 14.2103
lfemur -13.5856 -4.62875 -16.0672
ltibia 30.0812
lfoot -6.81235 -30.9102
ltoes 25.7103
